<svg xmlns="http://www.w3.org/2000/svg" width="1200" height="1200" viewBox="0 0 1200 1200"><defs><linearGradient id="g119" x1="0" y1="0" x2="1" y2="1"><stop offset="0" stop-color="#f4f4f5"/><stop offset="1" stop-color="#e1e1e2"/></linearGradient></defs><rect width="1200" height="1200" fill="url(#g119)"/><circle cx="600" cy="462" r="336" fill="#26292f" opacity="0.1"/><circle cx="846" cy="246" r="112" fill="#26292f" opacity="0.07"/><circle cx="318" cy="716" r="70" fill="#26292f" opacity="0.06"/><g transform="translate(250,110) scale(7)"><path d="M50,15 L50,70" stroke="#26292f" stroke-width="4"/><path d="M42,20 C42,15 58,15 58,20 L58,55 C58,58 42,58 42,55 Z" fill="#26292f"/><path d="M50,70 C50,78 42,78 42,72" fill="none" stroke="#26292f" stroke-width="4" stroke-linecap="round"/><rect x="40" y="35" width="20" height="3" fill="#9d9fa1" opacity="0.6"/></g><rect x="558" y="880" width="84" height="2" fill="#26292f" opacity="0.65"/><text x="604" y="946" font-family="Helvetica, Arial, sans-serif" font-size="25" fill="#54534e" text-anchor="middle" letter-spacing="8">ACCESSORIES</text><text x="600" y="1032" font-family="Georgia, serif" font-size="39" fill="#23211d" text-anchor="middle">Compact Travel Umbrella</text></svg>